<?xml version="1.0" encoding="UTF-8"?>
<svg version="1.1" xmlns="http://www.w3.org/2000/svg" width="1024" height="1024">
<path d="M0 0 C337.92 0 675.84 0 1024 0 C1024 337.92 1024 675.84 1024 1024 C686.08 1024 348.16 1024 0 1024 C0 686.08 0 348.16 0 0 Z " fill="#0E1E3F" transform="translate(0,0)"/>
<path d="M0 0 C337.92 0 675.84 0 1024 0 C1024 337.92 1024 675.84 1024 1024 C686.08 1024 348.16 1024 0 1024 C0 686.08 0 348.16 0 0 Z M247.3125 133.75 C246.44222168 134.00604004 245.57194336 134.26208008 244.67529297 134.52587891 C236.46230203 137.02365195 228.69603803 140.21391691 221 144 C220.36900391 144.30663574 219.73800781 144.61327148 219.08789062 144.92919922 C179.70883855 164.28755586 149.72918948 199.5744167 135.42797893 240.92753285 C134.12191679 244.90838971 133.06045749 248.94783823 132 253 C131.80943932 253.72104585 131.61887865 254.4420917 131.42254341 255.18498743 C126.24481043 275.99601256 127.43482964 297.71530338 127.49176037 318.98628151 C127.50296666 324.82337229 127.4908961 330.66042456 127.48191833 336.49751282 C127.46805036 347.90184421 127.47549358 359.30606419 127.49059392 370.71039019 C127.50240069 379.9831499 127.5059413 389.25587979 127.50367546 398.52864647 C127.50351505 399.18989967 127.50335463 399.85115286 127.50318935 400.53244404 C127.50252566 403.21731618 127.50182323 405.90218831 127.50106401 408.58706042 C127.49405742 433.71537531 127.50947401 458.84363106 127.53568747 483.97193091 C127.55881189 506.25710334 127.56418387 528.54221085 127.55395508 550.82739258 C127.55135269 556.53847151 127.54876756 562.24955045 127.54635715 567.96062946 C127.54605971 568.66391377 127.54576226 569.36719809 127.5454558 570.09179404 C127.53782912 588.76320067 127.54426334 607.43460205 127.55505317 626.10600632 C127.55620088 628.11660159 127.55734406 630.12719686 127.55848 632.13779214 C127.55961173 634.13610191 127.56076114 636.13441167 127.56191059 638.13272143 C127.56664151 647.39042494 127.56481055 656.64811375 127.56054878 665.90581703 C127.55560956 677.19299828 127.56166281 688.48011257 127.58144308 699.76727853 C127.59127712 705.51943231 127.5964623 711.27148437 127.58855057 717.02364349 C127.58144292 722.29930047 127.58841605 727.57475308 127.6061542 732.8503833 C127.61016585 734.74838456 127.60925479 736.64640475 127.60263533 738.5443987 C127.47032001 780.06954293 142.67841294 818.71596738 171.61425781 848.56738281 C172.85750618 849.8526861 174.08235104 851.15573077 175.3046875 852.4609375 C191.30623445 869.16584915 212.378201 881.22588614 234.125 888.75 C235.25711914 889.15424194 235.25711914 889.15424194 236.41210938 889.56665039 C253.19612608 895.09155938 270.5048083 896.5970809 288.05084229 896.50120544 C290.06990757 896.50511069 292.08897009 896.51076084 294.10802627 896.51797634 C299.58763809 896.53257274 305.06695791 896.52264517 310.54655981 896.50823963 C316.48251011 896.49704292 322.41842231 896.50910084 328.35437012 896.51808167 C339.28640295 896.531157 350.2183352 896.52627876 361.15036422 896.51200638 C371.25065951 896.49890623 381.35092174 896.49376792 391.45122528 896.49632454 C392.12363799 896.49648495 392.7960507 896.49664537 393.48883956 896.49681065 C396.21897859 896.49747433 398.94911762 896.49817676 401.67925663 896.49893599 C427.23671407 896.50594417 452.79411339 896.49052094 478.35155604 896.46431253 C501.01921965 896.44119062 523.68681944 896.4358149 546.35449219 896.44604492 C552.16286338 896.4486473 557.97123458 896.45123241 563.77960587 896.45364285 C564.85248983 896.45408902 564.85248983 896.45408902 565.94704822 896.4545442 C584.93572542 896.46217068 603.92439746 896.45573678 622.91307235 896.44494683 C624.95783136 896.44379912 627.00259037 896.44265594 629.04734938 896.44152 C630.40355947 896.44076476 631.75976956 896.43999912 633.11597964 896.43922299 C643.20855339 896.43358229 653.30111059 896.43488257 663.39368439 896.43945122 C674.87485777 896.44439008 686.35596531 896.4383389 697.83712366 896.41855692 C703.68850801 896.40872151 709.53979235 896.40353919 715.39118195 896.41144943 C720.75754826 896.41855534 726.12371362 896.41158789 731.49005362 896.3938458 C733.42105904 896.38983302 735.35208307 896.39074717 737.28308132 896.39736467 C760.41053391 896.46977873 782.81313729 892.52456909 804 883 C804.64437012 882.71141113 805.28874023 882.42282227 805.95263672 882.12548828 C844.68276001 864.47402218 873.48368914 831.58243995 888.3125 791.953125 C895.02825656 772.94991118 896.30391689 753.10069068 896.26742554 733.12193298 C896.27116981 731.15698449 896.2757744 729.19203749 896.28115618 727.2270928 C896.29330554 721.86907848 896.29313531 716.51112697 896.29076743 711.15310204 C896.29035721 705.3580602 896.30141788 699.56303795 896.31088257 693.76800537 C896.32744911 682.42992057 896.33299014 671.09185658 896.33410732 659.75376069 C896.33505985 650.53141509 896.3391803 641.30907631 896.34550858 632.08673286 C896.34729773 629.42491597 896.3490835 626.76309908 896.35085833 624.10128218 C896.35130043 623.43940582 896.35174252 622.77752947 896.35219802 622.09559625 C896.36449393 603.49651365 896.37240042 584.89743337 896.37151146 566.29834652 C896.3714803 565.59815846 896.37144914 564.89797039 896.37141704 564.17656451 C896.37125085 560.62832686 896.37105277 557.08008922 896.37084763 553.53185158 C896.37080774 552.82725434 896.37076785 552.12265709 896.37072675 551.39670842 C896.37064587 549.97184288 896.37056228 548.54697735 896.37047596 547.12211181 C896.36925113 524.96557757 896.38425648 502.8091046 896.41162109 480.65258789 C896.44240747 455.71572845 896.45954966 430.77890926 896.45769465 405.84202963 C896.45695589 392.65505989 896.46245593 379.46815632 896.48405075 366.28120232 C896.50232182 355.05254759 896.50656135 343.82399332 896.4930319 332.59533011 C896.48653218 326.87497152 896.48627601 321.15480532 896.5037384 315.43446541 C896.96214006 283.95999239 896.96214006 283.95999239 892 253 C891.66935232 251.72724685 891.33870464 250.45449369 890.99803734 249.14317226 C890.1870249 246.23290915 889.26462604 243.40742174 888.25 240.5625 C887.90638428 239.56935791 887.56276855 238.57621582 887.20874023 237.55297852 C884.15811517 228.97635215 880.474574 220.9184877 876 213 C875.46439453 212.03610352 875.46439453 212.03610352 874.91796875 211.05273438 C870.03752862 202.33519908 864.62885254 194.51346545 858 187 C857.24589844 186.13632813 856.49179687 185.27265625 855.71484375 184.3828125 C853.50741233 181.8914062 851.26618597 179.43799068 849 177 C848.38898437 176.33484375 847.77796875 175.6696875 847.1484375 174.984375 C824.27864854 151.04408528 792.18579125 136.15924127 760 130 C759.24857225 129.83800434 758.49714451 129.67600869 757.72294623 129.50910407 C748.08305744 127.62922343 738.58066333 127.71763189 728.80381775 127.73930359 C726.86421978 127.73627945 724.92462301 127.73238865 722.98502833 127.72771102 C717.67866022 127.71745583 712.37235987 127.71960655 707.06598628 127.72389162 C701.33366652 127.72636341 695.60136288 127.71733893 689.86904907 127.70985413 C678.64672544 127.69711674 667.42442574 127.69531232 656.2020961 127.69765439 C647.07592129 127.69943914 637.94975373 127.69768453 628.82357979 127.69342995 C626.87345449 127.69253716 626.87345449 127.69253716 624.88393273 127.69162634 C622.24255303 127.69041455 619.60117333 127.68920042 616.95979363 127.68798397 C599.22870585 127.68019886 581.49762117 127.67627604 563.76653194 127.68030071 C563.0736761 127.68045709 562.38082026 127.68061346 561.66696879 127.68077458 C558.15567528 127.68158031 554.64438178 127.68242608 551.13308828 127.68328788 C550.43579453 127.68345897 549.73850077 127.68363006 549.0200769 127.68380633 C547.6099795 127.68415299 546.1998821 127.68450152 544.7897847 127.68485192 C522.86220057 127.69020581 500.93465669 127.68228641 479.00708008 127.66381836 C454.34276761 127.64306944 429.67848103 127.63241243 405.01415926 127.63639385 C391.96588095 127.63830346 378.91763929 127.63584192 365.8693676 127.62167931 C354.75835767 127.60974116 343.64740692 127.60838772 332.53639614 127.62046947 C326.87330029 127.62634167 321.21031257 127.62750373 315.54722404 127.61546707 C310.35126895 127.60455221 305.15551154 127.60777774 299.95956547 127.62172876 C298.09149627 127.62436039 296.22341129 127.62205807 294.35535764 127.61399289 C278.35485618 127.54977119 262.69777827 129.13219183 247.3125 133.75 Z " fill="#FEFEFE" transform="translate(0,0)"/>
<path d="M0 0 C30.009375 -0.0825 60.01875 -0.165 90.9375 -0.25 C100.36820068 -0.28641602 109.79890137 -0.32283203 119.51538086 -0.36035156 C131.14562988 -0.37841797 131.14562988 -0.37841797 136.61231995 -0.3817749 C140.38215299 -0.38546018 144.15175438 -0.40028157 147.92152405 -0.42230225 C190.76373831 -0.66141999 231.5096123 3.4240732 265 33 C266.44826172 34.21429688 266.44826172 34.21429688 267.92578125 35.453125 C292.67779969 56.89845355 308.60017846 90.4408828 311 123 C311.06094621 125.18675006 311.08764316 127.37504529 311.0625 129.5625 C311.05347656 130.59503906 311.04445313 131.62757813 311.03515625 132.69140625 C311.01775391 133.83416016 311.01775391 133.83416016 311 135 C304.71278529 131.63977481 298.76113182 127.95835921 292.875 123.94140625 C292.02240097 123.36417816 291.16980194 122.78695007 290.29136658 122.19223022 C288.46911033 120.9580303 286.64796472 119.7221892 284.82785034 118.48483276 C280.01658611 115.21420322 275.19709445 111.95572907 270.37890625 108.6953125 C268.92974571 107.71391548 268.92974571 107.71391548 267.4513092 106.71269226 C258.63971212 100.74793673 249.79620276 94.83199991 240.9375 88.9375 C240.25858704 88.48557281 239.57967407 88.03364563 238.88018799 87.56802368 C235.69817726 85.44996448 232.51564654 83.33268981 229.33251953 81.21630859 C224.84388779 78.23172602 220.35933425 75.24103419 215.875 72.25 C214.51174317 71.34110921 213.1484632 70.43225312 211.78515625 69.5234375 C189.26171875 54.5078125 189.26171875 54.5078125 187.38208008 53.25463867 C186.12811123 52.41871366 184.87404232 51.58293873 183.61987305 50.74731445 C180.51765216 48.68010836 177.41715177 46.61041723 174.3203125 44.53515625 C164.94357736 38.25756405 155.48535787 32.11196078 146 26 C146.26216309 27.11334717 146.52432617 28.22669434 146.79443359 29.3737793 C147.77975572 33.56418277 148.75847196 37.75610743 149.73535156 41.94848633 C150.15644457 43.75163229 150.57925138 45.55437902 151.00390625 47.35668945 C151.61926674 49.96979457 152.22813833 52.58434582 152.8359375 55.19921875 C153.11574966 56.37818977 153.11574966 56.37818977 153.4012146 57.58097839 C154.97260134 64.38746419 155.92785235 71.03104029 157 78 C131.26 78 105.52 78 79 78 C79 89.22 79 100.44 79 112 C76.215625 113.4025 73.43125 114.805 70.5625 116.25 C56.66724008 123.45303096 44.37413494 132.25311515 33 143 C31.64991542 144.15064027 30.29588411 145.2966696 28.9375 146.4375 C17.8244778 156.24180302 9.68441718 168.33152625 2.2109375 181.04296875 C1.81132812 181.68878906 1.41171875 182.33460938 1 183 C0.67 183 0.34 183 0 183 C0 122.61 0 62.22 0 0 Z " fill="#00379B" transform="translate(371,246)"/>
<path d="M0 0 C-2.08024153 27.04313988 -10.87110133 52.14308124 -27 74 C-27.62132812 74.86367188 -28.24265625 75.72734375 -28.8828125 76.6171875 C-53.14589639 108.65286104 -90.2968796 127.86370376 -129.66659546 133.52748108 C-133.87640967 134.04090016 -138.01517482 134.13470216 -142.25195312 134.11352539 C-143.42413391 134.11374443 -143.42413391 134.11374443 -144.61999512 134.1139679 C-147.17377611 134.11327755 -149.72748192 134.10552675 -152.28125 134.09765625 C-154.06343547 134.09578895 -155.84562145 134.09436652 -157.62780762 134.09336853 C-162.29664552 134.08956796 -166.96545184 134.07975891 -171.63427734 134.06866455 C-177.24781644 134.05658908 -182.86136616 134.05203647 -188.47491455 134.04621124 C-196.98329827 134.03654565 -205.49161282 134.01737193 -214 134 C-214 108.26 -214 82.52 -214 56 C-194.2 56 -174.4 56 -154 56 C-157.36701914 73.95743542 -157.36701914 73.95743542 -158.82421875 80.67578125 C-159.13350854 82.11392261 -159.44275219 83.5520739 -159.75195312 84.99023438 C-160.22500538 87.17819415 -160.69909955 89.36592311 -161.17407227 91.5534668 C-161.64337351 93.71868973 -162.10898562 95.88468119 -162.57421875 98.05078125 C-162.84838623 99.31575439 -163.12255371 100.58072754 -163.4050293 101.8840332 C-164.09377708 104.96241698 -164.09377708 104.96241698 -164 108 C-158.09709872 104.1306122 -152.19745456 100.2562933 -146.29980469 96.37890625 C-144.30311419 95.06695976 -142.30574402 93.75604694 -140.30761719 92.44628906 C-129.21057369 85.17118804 -118.20709208 77.79917589 -107.36677551 70.14634705 C-99.07882191 64.31314171 -90.62253263 58.74905802 -82.13986206 53.20440674 C-63.65579582 41.11882366 -45.30248964 28.84759493 -27.02319336 16.45483398 C-2.74063032 0 -2.74063032 0 0 0 Z " fill="#C41424" transform="translate(682,397)"/>
<path d="M0 0 C4.66925248 1.59224869 8.39281193 4.12043864 12.421875 6.890625 C13.14627777 7.38286057 13.87068054 7.87509613 14.61703491 8.38224792 C16.18034307 9.44516604 17.74221514 10.51019875 19.30279541 11.57711792 C23.47921293 14.4320709 27.66630573 17.27130999 31.8515625 20.11328125 C32.70406586 20.69284073 33.55656921 21.27240021 34.43490601 21.86952209 C42.63323949 27.43997491 50.87262237 32.9475473 59.125 38.4375 C60.48529069 39.34314954 61.84556097 40.24882973 63.20581055 41.15454102 C67.77123901 44.19366097 72.33828106 47.23035208 76.90545654 50.2668457 C81.12528321 53.0725111 85.34450995 55.87907408 89.5625 58.6875 C90.11839813 59.05759186 90.67429626 59.42768372 91.24703979 59.80899048 C100.22373153 65.78808078 109.14437643 71.84310398 118 78 C113.85270422 82.51220784 109.21667142 85.7646737 104.12109375 89.140625 C103.27200943 89.70827576 102.42292511 90.27592651 101.54811096 90.86077881 C99.76060768 92.05357748 97.97117428 93.24348822 96.17993164 94.43066406 C93.43768877 96.24987477 90.70389976 98.08129672 87.97070312 99.9140625 C86.22965969 101.07365725 84.4881394 102.23253641 82.74609375 103.390625 C81.92934677 103.9384967 81.11259979 104.48636841 80.27110291 105.05084229 C79.50673416 105.55516785 78.74236542 106.05949341 77.95483398 106.57910156 C77.28596664 107.02368713 76.6170993 107.46827271 75.92796326 107.92633057 C73.89539995 109.05825105 72.30699118 109.69469284 70 110 C66.75 108.5625 66.75 108.5625 64 107 C63.53944214 107.70346558 63.53944214 107.70346558 63.06958008 108.42114258 C61.66126289 110.5588755 60.23713287 112.68560908 58.8125 114.8125 C58.32974609 115.55048828 57.84699219 116.28847656 57.34960938 117.04882812 C54.67865221 121.01044915 52.54088678 124.06916915 48 126 C47.01 126 46.02 126 45 126 C46.29407993 123.19819488 47.70336434 120.99271597 49.75 118.6875 C50.2759375 118.08679688 50.801875 117.48609375 51.34375 116.8671875 C52.44791667 115.62239583 53.55208333 114.37760417 54.65625 113.1328125 C55.1821875 112.53210938 55.708125 111.93140625 56.25 111.3125 C56.72953125 110.77238281 57.2090625 110.23226562 57.703125 109.67578125 C59.09495367 107.87730384 60.0483727 106.06036289 61 104 C57.13110899 107.19385013 53.50642677 110.4357161 50.0625 114.0859375 C49.39476562 114.78847656 48.72703125 115.49101562 48.0390625 116.21484375 C46.66794375 117.66738909 45.308683 119.13121074 43.9609375 120.60546875 C38.99704026 125.77060506 38.99704026 125.77060506 35.94140625 126.47363281 C34 126.4765625 34 126.4765625 31 126 C30.71325226 123.08935626 30.51402282 120.84293336 31 118 C32.98501929 115.82878654 34.42483548 114.56719679 36.8125 113 C37.68696777 112.37726196 37.68696777 112.37726196 38.57910156 111.74194336 C40.37064751 110.47070396 42.18320471 109.23478732 44 108 C46.09366623 106.53461628 48.1722088 105.05053706 50.25 103.5625 C51.58804688 102.63630859 51.58804688 102.63630859 52.953125 101.69140625 C55.26633691 100.08411173 55.26633691 100.08411173 56 97 C48.08 102.28 40.16 107.56 32 113 C31.67 111.68 31.34 110.36 31 109 C34.5821231 104.44423695 39.18659973 101.90744666 44.1875 99.1875 C44.91130859 98.78080078 45.63511719 98.37410156 46.38085938 97.95507812 C51.71986607 95 51.71986607 95 54 95 C52.02 91.535 52.02 91.535 50 88 C49.39526855 88.12640869 48.79053711 88.25281738 48.16748047 88.38305664 C45.40547112 88.95391421 42.64040218 89.50832218 39.875 90.0625 C38.92367187 90.26166016 37.97234375 90.46082031 36.9921875 90.66601562 C32.03250061 91.64762032 27.99375407 92.33671195 23 91 C22.67 90.01 22.34 89.02 22 88 C22.84296631 87.88930176 23.68593262 87.77860352 24.55444336 87.66455078 C27.67331186 87.25059696 30.79094196 86.82853349 33.90795898 86.40087891 C35.25875452 86.21726301 36.60999803 86.03691257 37.96166992 85.85986328 C39.90136818 85.60522009 41.83939671 85.33795736 43.77734375 85.0703125 C44.94515381 84.91320801 46.11296387 84.75610352 47.31616211 84.59423828 C48.20182861 84.39813965 49.08749512 84.20204102 50 84 C50.33 83.34 50.66 82.68 51 82 C50.43716309 82.06058594 49.87432617 82.12117188 49.29443359 82.18359375 C23.13909246 84.95530302 23.13909246 84.95530302 16 84 C15.43095947 83.5057251 14.86191895 83.0114502 14.27563477 82.50219727 C11.0857514 80.39648411 8.67596616 80.61164082 4.875 80.6015625 C4.18004425 80.5974234 3.4850885 80.5932843 2.76907349 80.58901978 C0.51226798 80.58283675 -1.74331761 80.60175183 -4 80.625 C-4.76942932 80.62898804 -5.53885864 80.63297607 -6.331604 80.63708496 C-17.65455653 80.70617236 -28.63221593 81.29732691 -39.75634766 83.55566406 C-42.06437373 84.01274866 -44.37662868 84.39788601 -46.69921875 84.7734375 C-67.00437966 88.22125136 -87.04226776 94.88443654 -105 105 C-106.05832031 105.57363281 -107.11664063 106.14726562 -108.20703125 106.73828125 C-136.97357216 122.80175403 -157.24123435 147.42838679 -168.5546875 178.1640625 C-169.55212414 180.87176015 -170.61603567 183.46049263 -172 186 C-173.64577664 157.22938621 -159.58594949 126.30659012 -141 105 C-140.21625 104.09121094 -139.4325 103.18242187 -138.625 102.24609375 C-136.45721592 99.78902767 -134.2456982 97.38578902 -132 95 C-131.45214844 94.39929688 -130.90429688 93.79859375 -130.33984375 93.1796875 C-100.70971112 61.87512477 -48.07585958 43.4128496 -5.68701172 41.91845703 C-0.78912328 41.83806616 4.10297109 41.89210952 9 42 C8.75092896 40.97398682 8.75092896 40.97398682 8.49682617 39.92724609 C0 4.87304891 0 4.87304891 0 0 Z " fill="#FCFBFB" transform="translate(543,310)"/>
<path d="M0 0 C0 57.42 0 114.84 0 174 C-26.07 174 -52.14 174 -79 174 C-79.061875 161.7075 -79.12375 149.415 -79.1875 136.75 C-79.21481201 132.91213867 -79.24212402 129.07427734 -79.27026367 125.12011719 C-79.42557349 88.14619966 -74.70843688 57.43626821 -48.0390625 29.875 C-37.67868114 19.63041405 -15.3000533 0 0 0 Z " fill="#00379C" transform="translate(450,458)"/>
</svg>
